#!OML:ASF H:\Dans Jumps\Project 1\Capture day 1\Session 1\subject.ASF
:FULLY-SPECIFIED
:DEGREES
87
root 0.37363 17.6 -14.0008 5.88144 -0.137497 -1.36104
lowerback -2.66307 -0.716942 0.567842
upperback 3.67822 -1.07298 1.77151
thorax 5.32269 -0.548792 1.43929
lowerneck -11.9425 0.70335 -1.8726
upperneck 35.0903 1.62078 -0.242336
head 13.9074 0.417887 0.476819
rclavicle 3.97569e-015 -2.10712e-014
rhumerus -23.7765 -14.3912 -82.8136
rradius 23.9321
rwrist 31.9814
rhand -19.9017 -27.1111
rfingers 7.12502
rthumb 6.43471 -56.9933
lclavicle 3.97569e-015 -2.10712e-014
lhumerus -19.9778 -6.72805 92.4004
lradius 19.8292
lwrist 3.88991
lhand -26.0445 -3.90767
lfingers 7.12502
lthumb 0.502764 26.0715
rfemur -12.6344 -3.91012 20.0559
rtibia 20.8169
rfoot -12.9646 -1.10309
rtoes 17.8189
lfemur -11.3889 6.35913 -17.9103
ltibia 18.2149
lfoot -10.9372 3.43003
ltoes 2.99513
88
root 0.373759 17.5999 -14.0024 5.88096 -0.138535 -1.3576
lowerback -2.65127 -0.716927 0.56624
upperback 3.67875 -1.07254 1.7687
thorax 5.31645 -0.54858 1.43743
lowerneck -11.9317 0.702009 -1.8756
upperneck 35.0846 1.61851 -0.240455
head 13.9024 0.416872 0.477658
rclavicle 3.8763e-015 1.15295e-014
rhumerus -23.7803 -14.3919 -82.8124
rradius 23.9332
rwrist 31.9844
rhand -19.8916 -27.1176
rfingers 7.12502
rthumb 6.44442 -56.9995
lclavicle 3.8763e-015 1.15295e-014
lhumerus -19.9809 -6.76212 92.42
lradius 19.8529
lwrist 3.93497
lhand -26.0449 -3.90363
lfingers 7.12502
lthumb 0.502405 26.0755
rfemur -12.6452 -3.91178 20.0516
rtibia 20.8266
rfoot -12.964 -1.10042
rtoes 17.8065
lfemur -11.4 6.35809 -17.9153
ltibia 18.2287
lfoot -10.9424 3.42775
ltoes 3.01892
89
root 0.373918 17.5998 -14.004 5.88021 -0.139454 -1.35303
lowerback -2.64139 -0.717389 0.563419
upperback 3.68202 -1.07276 1.76552
thorax 5.31421 -0.548737 1.4358
lowerneck -11.928 0.701266 -1.87728
upperneck 35.0787 1.61742 -0.239826
head 13.8989 0.416336 0.477982
rclavicle -6.85807e-015 -6.75868e-015
rhumerus -23.7783 -14.393 -82.8129
rradius 23.9344
rwrist 31.9876
rhand -19.8854 -27.1244
rfingers 7.12502
rthumb 6.45044 -57.0062
lclavicle -6.85807e-015 -6.75868e-015
lhumerus -19.9759 -6.79108 92.4364
lradius 19.8721
lwrist 3.97424
lhand -26.0453 -3.89209
lfingers 7.12502
lthumb 0.502027 26.0871
rfemur -12.6559 -3.91505 20.0461
rtibia 20.837
rfoot -12.9636 -1.09782
rtoes 17.7814
lfemur -11.4104 6.35749 -17.9216
ltibia 18.2415
lfoot -10.9475 3.42474
ltoes 3.03135
90
root 0.374018 17.5997 -14.0056 5.87899 -0.141007 -1.35013
lowerback -2.63118 -0.717585 0.560719
upperback 3.68772 -1.07271 1.76327
thorax 5.31435 -0.548789 1.43508
lowerneck -11.9372 0.700561 -1.87553
upperneck 35.0773 1.61713 -0.242695
head 13.9004 0.416022 0.476531
rclavicle 2.18663e-015 -4.77083e-015
rhumerus -23.7691 -14.3973 -82.8137
rradius 23.9323
rwrist 31.992
rhand -19.885 -27.128
rfingers 7.12502
rthumb 6.45079 -57.0097
lclavicle 2.18663e-015 -4.77083e-015
lhumerus -19.9667 -6.81555 92.4509
lradius 19.8934
lwrist 4.00669
lhand -26.0546 -3.88891
lfingers 7.12502
lthumb 0.493015 26.0903
rfemur -12.6663 -3.91493 20.0427
rtibia 20.8473
rfoot -12.9641 -1.09815
rtoes 17.7581
lfemur -11.4205 6.35739 -17.9258
ltibia 18.2542
lfoot -10.9522 3.42111
ltoes 3.04367
